<?xml version="1.0" encoding="utf-8"?><svg xmlns="http://www.w3.org/2000/svg" xmlns:xlink="http://www.w3.org/1999/xlink"><symbol viewBox="0 0 20 8" fill="none" id="arrow-right" xmlns="http://www.w3.org/2000/svg"><path d="M19.354 4.354a.5.5 0 000-.708L16.172.464a.5.5 0 10-.708.708L18.293 4l-2.829 2.828a.5.5 0 10.708.708l3.182-3.182zM0 4.5h19v-1H0v1z" fill="currentColor"/></symbol><symbol viewBox="0 0 24 24" fill="none" id="file" xmlns="http://www.w3.org/2000/svg"><path d="M9 17.75c-.1 0-.19-.02-.29-.06a.74.74 0 01-.46-.69v-6c0-.41.34-.75.75-.75s.75.34.75.75v4.19l.72-.72c.29-.29.77-.29 1.06 0 .29.29.29.77 0 1.06l-2 2c-.14.14-.34.22-.53.22z" fill="currentColor"/><path d="M9 17.75c-.19 0-.38-.07-.53-.22l-2-2a.754.754 0 010-1.06c.29-.29.77-.29 1.06 0l2 2c.29.29.29.77 0 1.06-.15.15-.34.22-.53.22z" fill="currentColor"/><path d="M15 22.75H9c-5.43 0-7.75-2.32-7.75-7.75V9c0-5.43 2.32-7.75 7.75-7.75h5c.41 0 .75.34.75.75s-.34.75-.75.75H9C4.39 2.75 2.75 4.39 2.75 9v6c0 4.61 1.64 6.25 6.25 6.25h6c4.61 0 6.25-1.64 6.25-6.25v-5c0-.41.34-.75.75-.75s.75.34.75.75v5c0 5.43-2.32 7.75-7.75 7.75z" fill="currentColor"/><path d="M22 10.75h-4c-3.42 0-4.75-1.33-4.75-4.75V2c0-.3.18-.58.46-.69.28-.12.6-.05.82.16l8 8a.751.751 0 01-.53 1.28zm-7.25-6.94V6c0 2.58.67 3.25 3.25 3.25h2.19l-5.44-5.44z" fill="currentColor"/></symbol><symbol viewBox="0 0 24 24" fill="none" id="location" xmlns="http://www.w3.org/2000/svg"><path d="M12 14.17c-2.13 0-3.87-1.73-3.87-3.87S9.87 6.44 12 6.44s3.87 1.73 3.87 3.87-1.74 3.86-3.87 3.86zm0-6.23c-1.3 0-2.37 1.06-2.37 2.37s1.06 2.37 2.37 2.37 2.37-1.06 2.37-2.37S13.3 7.94 12 7.94z" fill="currentColor"/><path d="M12 22.76a5.97 5.97 0 01-4.13-1.67c-2.95-2.84-6.21-7.37-4.98-12.76C4 3.44 8.27 1.25 12 1.25h.01c3.73 0 8 2.19 9.11 7.09 1.22 5.39-2.04 9.91-4.99 12.75A5.97 5.97 0 0112 22.76zm0-20.01c-2.91 0-6.65 1.55-7.64 5.91C3.28 13.37 6.24 17.43 8.92 20a4.426 4.426 0 006.17 0c2.67-2.57 5.63-6.63 4.57-11.34-1-4.36-4.75-5.91-7.66-5.91z" fill="currentColor"/></symbol><symbol viewBox="0 0 24 24" fill="none" id="mail" xmlns="http://www.w3.org/2000/svg"><path d="M12 21.25H7c-3.65 0-5.75-2.1-5.75-5.75v-7c0-3.65 2.1-5.75 5.75-5.75h10c3.65 0 5.75 2.1 5.75 5.75v3c0 .41-.34.75-.75.75s-.75-.34-.75-.75v-3c0-2.86-1.39-4.25-4.25-4.25H7c-2.86 0-4.25 1.39-4.25 4.25v7c0 2.86 1.39 4.25 4.25 4.25h5c.41 0 .75.34.75.75s-.34.75-.75.75z" fill="currentColor"/><path d="M12 12.87c-.84 0-1.69-.26-2.34-.79l-3.13-2.5a.748.748 0 01-.12-1.05c.26-.32.73-.37 1.05-.12l3.13 2.5c.76.61 2.05.61 2.81 0l3.13-2.5c.32-.26.79-.21 1.05.12.26.32.21.8-.12 1.05l-3.13 2.5c-.64.53-1.49.79-2.33.79zM15.82 21.78c-.38 0-.74-.14-1-.4-.31-.31-.45-.76-.38-1.23l.19-1.35c.05-.35.26-.77.51-1.02l3.54-3.54c.48-.48.95-.73 1.46-.78.62-.06 1.24.2 1.82.78.58.58.84 1.19.78 1.82-.05.5-.31.98-.78 1.46l-3.54 3.54c-.25.25-.67.46-1.02.51l-1.35.19c-.08.01-.15.02-.23.02zm4.49-6.83h-.03c-.14.01-.33.14-.54.35l-3.54 3.54a.38.38 0 00-.08.17l-.18 1.25 1.25-.18c.04-.01.14-.06.17-.09l3.54-3.54c.21-.22.34-.4.35-.54.02-.2-.18-.44-.35-.61-.16-.16-.39-.35-.59-.35z" fill="currentColor"/><path d="M20.92 18.25c-.07 0-.14-.01-.2-.03a3.977 3.977 0 01-2.74-2.74.76.76 0 01.52-.93c.4-.11.81.12.92.52.23.82.88 1.47 1.7 1.7a.755.755 0 01-.2 1.48z" fill="currentColor"/></symbol><symbol viewBox="0 0 24 24" fill="none" id="percentage-circle" xmlns="http://www.w3.org/2000/svg"><path d="M8.57 16.02c-.19 0-.38-.07-.53-.22a.754.754 0 010-1.06l6.55-6.55c.29-.29.77-.29 1.06 0 .29.29.29.77 0 1.06L9.1 15.8c-.15.15-.34.22-.53.22zM8.98 11.11C7.89 11.11 7 10.22 7 9.13c0-1.09.89-1.98 1.98-1.98 1.09 0 1.98.89 1.98 1.98 0 1.09-.89 1.98-1.98 1.98zm0-2.45a.48.48 0 00-.48.48c0 .27.21.48.48.48s.48-.21.48-.48a.48.48 0 00-.48-.48zM15.52 16.84c-1.09 0-1.98-.89-1.98-1.98 0-1.09.89-1.98 1.98-1.98 1.09 0 1.98.89 1.98 1.98 0 1.09-.89 1.98-1.98 1.98zm0-2.45a.48.48 0 00-.48.48c0 .27.21.48.48.48s.48-.21.48-.48-.21-.48-.48-.48z" fill="currentColor"/><path d="M12 22.75C6.07 22.75 1.25 17.93 1.25 12S6.07 1.25 12 1.25 22.75 6.07 22.75 12 17.93 22.75 12 22.75zm0-20C6.9 2.75 2.75 6.9 2.75 12S6.9 21.25 12 21.25s9.25-4.15 9.25-9.25S17.1 2.75 12 2.75z" fill="currentColor"/></symbol><symbol viewBox="0 0 38 38" fill="none" id="phone" xmlns="http://www.w3.org/2000/svg"><circle cx="19" cy="19" r="18" stroke="currentColor" stroke-width="2"/><path d="M24.45 29.75c-1.13 0-2.32-.27-3.55-.79-1.2-.51-2.41-1.21-3.59-2.06-1.17-.86-2.3-1.82-3.37-2.87-1.06-1.07-2.02-2.2-2.87-3.36-.86-1.2-1.55-2.4-2.04-3.56-.52-1.24-.78-2.44-.78-3.57 0-.78.14-1.52.41-2.21.28-.71.73-1.37 1.34-1.94.77-.76 1.65-1.14 2.59-1.14.39 0 .79.09 1.13.25.39.18.72.45.96.81L17 12.58c.21.29.37.57.48.85.13.3.2.6.2.89 0 .38-.11.75-.32 1.1a4 4 0 01-.67.85l-.68.71c.01.03.02.05.03.07.12.21.36.57.82 1.11.49.56.95 1.07 1.41 1.54.59.58 1.08 1.04 1.54 1.42.57.48.94.72 1.16.83l-.02.05.73-.72c.31-.31.61-.54.9-.69.55-.34 1.25-.4 1.95-.11.26.11.54.26.84.47l3.32 2.36c.37.25.64.57.8.95.15.38.22.73.22 1.08 0 .48-.11.96-.32 1.41-.21.45-.47.84-.8 1.2-.57.63-1.19 1.08-1.91 1.37-.69.28-1.44.43-2.23.43zm-11.86-20c-.55 0-1.06.24-1.55.72-.46.43-.78.9-.98 1.41-.21.52-.31 1.07-.31 1.66 0 .93.22 1.94.66 2.98.45 1.06 1.08 2.16 1.88 3.26.8 1.1 1.71 2.17 2.71 3.18 1 .99 2.08 1.91 3.19 2.72 1.08.79 2.19 1.43 3.29 1.89 1.71.73 3.31.9 4.63.35.51-.21.96-.53 1.37-.99.23-.25.41-.52.56-.84.12-.25.18-.51.18-.77 0-.16-.03-.32-.11-.5a.757.757 0 00-.28-.3l-3.32-2.36c-.2-.14-.38-.24-.55-.31-.22-.09-.31-.18-.65.03-.2.1-.38.25-.58.45l-.76.75c-.39.38-.99.47-1.45.3l-.27-.12c-.41-.22-.89-.56-1.42-1.01-.48-.41-1-.89-1.63-1.51-.49-.5-.98-1.03-1.49-1.62-.47-.55-.81-1.02-1.02-1.41l-.12-.3c-.06-.23-.08-.36-.08-.5 0-.36.13-.68.38-.93l.75-.78c.2-.2.35-.39.45-.56.08-.13.11-.24.11-.34 0-.08-.03-.2-.08-.32-.07-.16-.18-.34-.32-.53l-2.32-3.28a.922.922 0 00-.37-.31c-.16-.07-.33-.11-.5-.11zm8.36 12.26l-.16.68.27-.7c-.05-.01-.09 0-.11.02zM25.5 16.75c-.41 0-.75-.34-.75-.75 0-.36-.36-1.11-.96-1.75-.59-.63-1.24-1-1.79-1-.41 0-.75-.34-.75-.75s.34-.75.75-.75c.97 0 1.99.52 2.88 1.47.83.89 1.37 1.98 1.37 2.78 0 .41-.34.75-.75.75zM29 16.75c-.41 0-.75-.34-.75-.75 0-3.45-2.8-6.25-6.25-6.25-.41 0-.75-.34-.75-.75s.34-.75.75-.75c4.27 0 7.75 3.48 7.75 7.75 0 .41-.34.75-.75.75z" fill="currentColor"/></symbol><symbol viewBox="0 0 24 24" fill="none" id="phone2" xmlns="http://www.w3.org/2000/svg"><path d="M17.45 22.75c-1.13 0-2.32-.27-3.55-.79-1.2-.51-2.41-1.21-3.59-2.06-1.17-.86-2.3-1.82-3.37-2.87-1.06-1.07-2.02-2.2-2.87-3.36-.86-1.2-1.55-2.4-2.04-3.56-.52-1.24-.78-2.44-.78-3.57 0-.78.14-1.52.41-2.21.28-.71.73-1.37 1.34-1.94.77-.76 1.65-1.14 2.59-1.14.39 0 .79.09 1.13.25.39.18.72.45.96.81L10 5.58c.21.29.37.57.48.85.13.3.2.6.2.89 0 .38-.11.75-.32 1.1a4 4 0 01-.67.85l-.68.71c.01.03.02.05.03.07.12.21.36.57.82 1.11.49.56.95 1.07 1.41 1.54.59.58 1.08 1.04 1.54 1.42.57.48.94.72 1.16.83l-.02.05.73-.72c.31-.31.61-.54.9-.69.55-.34 1.25-.4 1.95-.11.26.11.54.26.84.47l3.32 2.36c.37.25.64.57.8.95.15.38.22.73.22 1.08 0 .48-.11.96-.32 1.41-.21.45-.47.84-.8 1.2-.57.63-1.19 1.08-1.91 1.37-.69.28-1.44.43-2.23.43zm-11.86-20c-.55 0-1.06.24-1.55.72-.46.43-.78.9-.98 1.41-.21.52-.31 1.07-.31 1.66 0 .93.22 1.94.66 2.98.45 1.06 1.08 2.16 1.88 3.26.8 1.1 1.71 2.17 2.71 3.18 1 .99 2.08 1.91 3.19 2.72 1.08.79 2.19 1.43 3.29 1.89 1.71.73 3.31.9 4.63.35.51-.21.96-.53 1.37-.99.23-.25.41-.52.56-.84.12-.25.18-.51.18-.77 0-.16-.03-.32-.11-.5a.757.757 0 00-.28-.3l-3.32-2.36c-.2-.14-.38-.24-.55-.31-.22-.09-.31-.18-.65.03-.2.1-.38.25-.58.45l-.76.75c-.39.38-.99.47-1.45.3l-.27-.12c-.41-.22-.89-.56-1.42-1.01-.48-.41-1-.89-1.63-1.51-.49-.5-.98-1.03-1.49-1.62-.47-.55-.81-1.02-1.02-1.41l-.12-.3c-.06-.23-.08-.36-.08-.5 0-.36.13-.68.38-.93l.75-.78c.2-.2.35-.39.45-.56.08-.13.11-.24.11-.34 0-.08-.03-.2-.08-.32-.07-.16-.18-.34-.32-.53L6.46 3.17a.922.922 0 00-.37-.31c-.16-.07-.33-.11-.5-.11zm8.36 12.26l-.16.68.27-.7c-.05-.01-.09 0-.11.02zM18.5 9.75c-.41 0-.75-.34-.75-.75 0-.36-.36-1.11-.96-1.75-.59-.63-1.24-1-1.79-1-.41 0-.75-.34-.75-.75s.34-.75.75-.75c.97 0 1.99.52 2.88 1.47.83.89 1.37 1.98 1.37 2.78 0 .41-.34.75-.75.75zM22 9.75c-.41 0-.75-.34-.75-.75 0-3.45-2.8-6.25-6.25-6.25-.41 0-.75-.34-.75-.75s.34-.75.75-.75c4.27 0 7.75 3.48 7.75 7.75 0 .41-.34.75-.75.75z" fill="currentColor"/></symbol><symbol viewBox="0 0 16 18" fill="none" id="play" xmlns="http://www.w3.org/2000/svg"><path d="M.526 2.964c0-1.54 1.667-2.502 3-1.732l10.5 6.062c1.334.77 1.334 2.695 0 3.464l-10.5 6.063c-1.333.77-3-.193-3-1.733V2.964z" fill="currentColor"/></symbol><symbol viewBox="0 0 24 24" fill="none" id="search" xmlns="http://www.w3.org/2000/svg"><path d="M11.5 21.75c-5.65 0-10.25-4.6-10.25-10.25S5.85 1.25 11.5 1.25s10.25 4.6 10.25 10.25-4.6 10.25-10.25 10.25zm0-19c-4.83 0-8.75 3.93-8.75 8.75s3.92 8.75 8.75 8.75 8.75-3.93 8.75-8.75-3.92-8.75-8.75-8.75zM22 22.75c-.19 0-.38-.07-.53-.22l-2-2a.754.754 0 010-1.06c.29-.29.77-.29 1.06 0l2 2c.29.29.29.77 0 1.06-.15.15-.34.22-.53.22z" fill="currentColor"/></symbol><symbol viewBox="0 0 24 24" fill="none" id="truck-time" xmlns="http://www.w3.org/2000/svg"><path d="M13 14.75H2c-.41 0-.75-.34-.75-.75V7.62c0-.32.2-.6.49-.71.3-.11.63-.02.83.22.61.73 1.56 1.14 2.5 1.11.8-.02 1.54-.32 2.1-.85.26-.22.47-.48.63-.77.31-.53.46-1.11.45-1.7-.02-.92-.42-1.76-1.1-2.37a.748.748 0 01-.21-.83c.11-.29.39-.49.7-.49H15c.41 0 .75.34.75.75v10c0 1.54-1.23 2.77-2.75 2.77zm-10.25-1.5H13c.69 0 1.25-.56 1.25-1.25V2.75H9.19c.35.65.54 1.38.56 2.14.02.87-.2 1.73-.64 2.48-.24.43-.57.84-.93 1.14-.8.76-1.9 1.21-3.07 1.24-.83.03-1.65-.18-2.35-.56v4.06h-.01z" fill="currentColor"/><path d="M19 20.75h-1c-.41 0-.75-.34-.75-.75a1.25 1.25 0 00-2.5 0c0 .41-.34.75-.75.75h-4c-.41 0-.75-.34-.75-.75a1.25 1.25 0 00-2.5 0c0 .41-.34.75-.75.75H5c-2.07 0-3.75-1.68-3.75-3.75v-3c0-.41.34-.75.75-.75h11c.69 0 1.25-.56 1.25-1.25V5c0-.41.34-.75.75-.75h1.84c.99 0 1.9.53 2.39 1.39l1.71 2.99c.13.23.13.52 0 .75-.13.23-.38.37-.65.37H19c-.14 0-.25.11-.25.25v3c0 .14.11.25.25.25h3c.41 0 .75.34.75.75v3c0 2.07-1.68 3.75-3.75 3.75zm-.35-1.5H19c1.24 0 2.25-1.01 2.25-2.25v-2.25H19c-.96 0-1.75-.79-1.75-1.75v-3c0-.96.78-1.75 1.75-1.75l-1.07-1.87c-.22-.39-.64-.63-1.09-.63h-1.09V12c0 1.52-1.23 2.75-2.75 2.75H2.75V17c0 1.24 1.01 2.25 2.25 2.25h.35c.33-1.15 1.39-2 2.65-2s2.32.85 2.65 2h2.71c.33-1.15 1.39-2 2.65-2s2.31.85 2.64 2z" fill="currentColor"/><path d="M8 22.75c-1.52 0-2.75-1.23-2.75-2.75S6.48 17.25 8 17.25s2.75 1.23 2.75 2.75S9.52 22.75 8 22.75zm0-4a1.25 1.25 0 100 2.5 1.25 1.25 0 000-2.5zM16 22.75c-1.52 0-2.75-1.23-2.75-2.75s1.23-2.75 2.75-2.75 2.75 1.23 2.75 2.75-1.23 2.75-2.75 2.75zm0-4a1.25 1.25 0 100 2.5 1.25 1.25 0 000-2.5zM22 14.75h-3c-.96 0-1.75-.79-1.75-1.75v-3c0-.96.79-1.75 1.75-1.75h1.29c.27 0 .52.14.65.38l1.71 3c.06.11.1.24.1.37v2c0 .41-.34.75-.75.75zm-3-5c-.14 0-.25.11-.25.25v3c0 .14.11.25.25.25h2.25V12.2l-1.4-2.45H19zM5 9.75C2.38 9.75.25 7.62.25 5c0-1.46.65-2.81 1.78-3.71C2.87.62 3.93.25 5 .25 7.62.25 9.75 2.38 9.75 5c0 1.36-.59 2.66-1.62 3.56-.87.77-1.98 1.19-3.13 1.19zm0-8c-.74 0-1.44.25-2.03.72C2.2 3.08 1.75 4.01 1.75 5c0 1.79 1.46 3.25 3.25 3.25.78 0 1.54-.29 2.15-.81.7-.62 1.1-1.5 1.1-2.44 0-1.79-1.46-3.25-3.25-3.25z" fill="currentColor"/><path d="M4 6.75c-.25 0-.5-.13-.64-.36-.21-.36-.1-.82.26-1.03l.89-.53V3.75c0-.41.34-.75.75-.75s.75.34.75.75v1.5c0 .26-.14.51-.36.64l-1.25.75c-.14.08-.27.11-.4.11z" fill="currentColor"/></symbol></svg>